<svg xmlns="http://www.w3.org/2000/svg" xml:space="preserve" style="enable-background:new 0 0 954.33 150.97" viewBox="0 0 954.33 150.97" width="303" height="48" class="h-12 w-auto"><style>.amc-logo-horizontal-tagline_svg__st0{fill:#ce0e2d}.amc-logo-horizontal-tagline_svg__st1{fill:#fff}</style><path d="M411.53 15.21v56.57h-14.05V15.21h-20.7V3.5h54.71v11.71h-19.96zM485.94 71.78V40.87h-27.07v30.91h-14.05V3.5h14.05v25.66h27.07V3.5h14.05v68.28h-14.05zM514.55 71.78V3.5H564v11.71h-35.41v15.54h32.7v11.71h-32.7v17.61h37.01v11.71h-51.05zM624.07 71.78l-4.69-13.68H594.1l-4.79 13.68h-14.32L598.77 3.5h16.21l23.42 68.28h-14.33zm-17.14-51.89-8.43 26.5h17.51l-9.08-26.5zM669.54 15.21v56.57h-14.06V15.21h-20.69V3.5h54.7v11.71h-19.95zM743.43 71.78c-1.11-2.06-1.68-4.12-1.87-6.36-.19-3.39 0-8.8 0-13.78 0-4.59-3.56-6.84-8.43-6.84h-16.48v26.97h-14.06V3.5h37.95c6.83 0 13.67 3.46 15.74 10.87.83 2.99 2.34 7.86.65 13.75-1.68 5.92-4.68 8.07-9.27 10.78 2.34 1.59 6.84 3.28 7.59 9.46.38 2.8.65 11.81.65 15.27.08 3.84 1.13 4.69 2.62 5.62v2.52h-15.09zm-7.77-56.57h-19.01v17.88h19.2c3.28 0 9.18-3.46 8.33-10.2 0-4.88-2.24-7.68-8.52-7.68zM770.03 71.78V3.5h49.45v11.71h-35.4v15.54h32.7v11.71h-32.7v17.61h36.99v11.71h-51.04zM870.48 24.29c.19-5.54-4.4-10.6-14.06-10.77-6.84-.1-11.89 2.24-12.36 7.85-.38 4.69 1.22 5.63 4.31 6.85 1.59 1.68 14.51 3.74 17.15 4.22 3.74.64 11.8 2.34 16.1 6.74 7.87 8.25 4.22 24.45-4.31 29.99-5.81 3.74-13.77 4.68-21.36 4.77-3.46.09-11.71-1.12-16.76-4.77-6.09-4.41-9.09-11.16-9.56-17.62h13.69c0 1.78.55 4.59 2.89 7.12 3.09 3.19 8.15 4.12 12.83 3.94 4.68-.09 9.09-1.5 10.88-3.19 2.99-2.8 3.65-8.16.27-11.52-4.49-4.69-17.98-4.69-26.79-7.68-7.39-2.52-13.48-7.87-12.36-18.92 1.13-10.87 9-18.93 25.68-18.93 3.65 0 16.39.29 23.03 8.72 3.56 4.59 4.5 10.96 3.93 13.22h-13.2zM220.62 11.08c13.7-11.6 28.06-11.37 40.28-5.34 11.36 5.99 15.43 14.6 15.61 27.18l-.01 30.85s-.11 8.71-9.04 8.71c-8.48 0-8.88-8.65-8.88-8.65l-.12-30.49s-.52-14.16-14.68-14.16c-14.23 0-15.37 14.09-15.37 14.09v30.01s0 9.08-9.01 9.08c-8.8 0-8.99-9.08-8.99-9.08l-.01-29.92s-.27-14.18-15.32-14.18c-14.98 0-14.59 14.38-14.59 14.38v30.77s-1.05 8.1-8.95 8.1c-8.19 0-9.01-8.17-9.01-8.17l-.06-31.06c0-11.45 2.22-22.81 18.5-29.25 7.4-2.92 16.09-2.86 23.88-1.09 5.19 1.88 9.68 4.43 14.05 8.2l.82.72.9-.7zM133.72 63.59c0-8.92-8.85-8.95-8.85-8.95h-31.9c-1.89 0-2.11-1.45-1.65-3.13 3.89-9.68 12.53-20.51 21.77-25.25 7.64-3.9 16.41-7.97 25.5-7.37 1.89.14 1.89 1.03 1.91 4.01v40.26s.46 9.14 9.31 9.14c9.11 0 8.39-8.84 8.39-8.84l-.04-50.56c.12-3.07-.44-6.02-2.27-8.38-1.36-1.24-3.18-2.54-5.25-2.83-10.86-.89-21.29.09-31.27 3.01-18.54 5.4-36.25 20.45-45.33 38.36-3.1 6.1-5.96 14.1-6.08 21.48.12 3.54 1.6 7.67 5.64 7.67l51.43.26c-.01.02 8.69.35 8.69-8.88zM346.42 41.68c9 .94 7.88 9.39 7.88 9.39-4.86 15.28-19.17 24.63-36.07 24.63-20.9 0-37.84-16.95-37.84-37.85C280.38 16.95 297.33 0 318.23 0c16.97 0 31.33 8.28 36.13 23.67 0 0 2.29 9.26-7.67 10.42-7.37 0-8.51-6.01-8.51-6.01-2.86-8.26-10.69-11.3-19.91-11.3-11.64 0-21.07 9.44-21.07 21.06 0 11.64 9.43 21.07 21.07 21.07 9.11 0 16.87-4.05 19.81-12.14-.01 0 1.8-5.24 8.34-5.09zM883.28 69.73c0-2.01 1.63-3.64 3.66-3.64a3.64 3.64 0 0 1 3.64 3.64c0 2.03-1.63 3.66-3.64 3.66-2.03 0-3.66-1.63-3.66-3.66zm6.87 0c0-1.77-1.44-3.2-3.2-3.2-1.78 0-3.21 1.43-3.21 3.2 0 1.79 1.43 3.22 3.21 3.22 1.76 0 3.2-1.43 3.2-3.22zm-1.39 2.05h-.6L887 69.89h-.92v1.89h-.5V67.7h1.78c.35 0 .69.02.99.2.31.17.46.53.46.88 0 .81-.56 1.1-1.29 1.12l1.24 1.88zm-1.92-2.28c.58 0 1.47.1 1.47-.74 0-.63-.56-.7-1.06-.7h-1.17v1.44h.76z" class="amc-logo-horizontal-tagline_svg__st0"></path><path d="M948.21 120.97h-1.59v3.15h-1.36v-3.15h-1.59v-1.09h4.53v1.09zm6.12-1.09v4.23h-1.31v-2.55l-1.47 1.97h-.04l-1.45-1.97v2.55h-1.33v-4.23h1.41l1.39 1.92 1.41-1.92h1.39zM51.49 119.31l-11.24 30.73h-5.44l-9.04-24.8-9.09 24.8h-5.4L0 119.31h5.62l8.47 24.58 9.13-24.58h5.18l9.09 24.58 8.52-24.58h5.48zM98.3 145.43v4.61H67.7v-30.73h30.16v4.61H72.92v8.21H93.9v4.61H72.92v8.69H98.3zM179.34 119.31v30.73h-5.27v-23.57l-14.62 17.74h-.31l-14.62-17.74v23.57h-5.09v-30.73h5.71l14.27 17.6 14.27-17.6h5.66zM223.33 142.62h-19.71l-3.91 7.42H194l16.64-30.73h5.79l16.59 30.73h-5.75l-3.94-7.42zm-2.33-4.47-7.51-14.22-7.51 14.22H221zM275.49 150.04l-13.3-15.54-9.17 7.42v8.12h-5.27v-30.73h5.27v16.86l20.9-16.86h7.11l-14.84 12.12 15.76 18.61h-6.46zM327.86 145.43v4.61h-30.6v-30.73h30.16v4.61h-24.94v8.21h20.98v4.61h-20.98v8.69h25.38zM409.78 119.31v30.73h-5.27v-23.57L389.9 144.2h-.31l-14.62-17.74v23.57h-5.09V119.3h5.71l14.27 17.6 14.27-17.6h5.65zM424.8 134.68c0-10.14 7.29-16.29 19.1-16.29s19.1 6.15 19.1 16.29c0 10.14-7.29 16.29-19.1 16.29s-19.1-6.15-19.1-16.29zm32.79 0c0-7.46-5.36-11.63-13.7-11.63s-13.74 4.17-13.74 11.63 5.36 11.63 13.74 11.63c8.35 0 13.7-4.17 13.7-11.63zM480.78 119.31l12.95 25.33 12.95-25.33h5.75l-15.94 30.73h-5.62l-15.94-30.73h5.85zM528.02 150.04v-30.73h5.27v30.73h-5.27zM582.81 145.43v4.61h-30.6v-30.73h30.16v4.61h-24.94v8.21h20.98v4.61h-20.98v8.69h25.38zM631.76 140.96c0 5.84-5.75 10.01-16.2 10.01-7.2 0-13.57-2.11-18.35-6.23l3.29-3.73c4.17 3.73 9.09 5.4 15.28 5.4 6.85 0 10.62-1.8 10.62-5 0-3.16-3.86-3.99-11.59-4.65-8.47-.7-16.46-2.59-16.46-8.87 0-6.1 7.07-9.48 15.89-9.48 6.67 0 12.34 1.98 16.02 5.09l-3.34 3.6c-3.16-2.77-7.51-4.08-12.6-4.13-4.87-.04-10.67 1.14-10.67 4.57 0 3.25 5.14 3.82 11.85 4.35 9.58.73 16.26 2.66 16.26 9.07zM705.43 141.61c0 5.53-4.52 8.43-11.76 8.43h-22.04v-30.73h20.76c6.76 0 11.28 2.77 11.28 7.81 0 3.51-2.15 6.67-6.67 6.98 4.78.32 8.43 2.51 8.43 7.51zm-28.63-9.35h14.75c4.13 0 6.89-.92 6.89-4.3s-2.77-4.26-6.89-4.26H676.8v8.56zm23.23 8.83c0-3.47-2.77-4.57-7.38-4.57H676.8v9.13h15.85c4.61 0 7.38-1.09 7.38-4.56zM752.71 145.43v4.61h-30.6v-30.73h30.16v4.61h-24.94v8.21h20.98v4.61h-20.98v8.69h25.38zM799.55 123.92h-14v26.12h-5.27v-26.12h-13.92v-4.61h33.19v4.61zM845.91 123.92h-14v26.12h-5.27v-26.12h-13.92v-4.61h33.19v4.61zM892.58 145.43v4.61h-30.6v-30.73h30.16v4.61H867.2v8.21h20.98v4.61H867.2v8.69h25.38zM935.12 150.04l-9.53-11.15h-12.95v11.15h-5.27v-30.73h20.9c7.16 0 12.42 3.42 12.42 9.79 0 5.31-3.69 8.56-9.04 9.53l9.96 11.41h-6.49zm-7.2-15.67c4.39 0 7.38-1.41 7.38-5.22s-2.99-5.22-7.38-5.22H912.6v10.45h15.32z" class="amc-logo-horizontal-tagline_svg__st1"></path>

</svg>